#!OML:ASF F:\VICON\USERDATA\INSTALL\rory3\rory3.ASF
:FULLY-SPECIFIED
:DEGREES
54
root -0.5539645014967984 17.72827353368199 4.040124406613386 6.53217863671992 -0.4712453362675524 -1.5948031381332637
lfemur 5.970014898538885 -1.6668217757623605 -27.026289705113623
ltibia 33.3722206898946
lfoot -12.093098909131742 -2.3819407644228185
ltoes -27.91850876798933
rfemur -53.58551046804723 -5.008646825682053 22.87462806016885
rtibia 94.13382584937875
rfoot 3.181916956549832 7.112426056547231
rtoes -0.49491794706811776
lowerback nan -0.91514705084732 -3.525615656009084
upperback -0.8238083213728666 -2.0574007374480745 2.4865658561885615
thorax -9.607356967806743 -0.871388546005758 5.634598498340359
lowerneck -23.12405086236046 -2.5668507120999804 -0.9497133510832174
upperneck 12.53580074553099 -4.103947774909525 2.723838026420989
head 8.046344984349663 -1.4477344209335778 0.4804236627528774
lclavicle -1.4486827406357496e-14 -4.680938831325216e-15
lhumerus -28.106023075725382 -17.017190853677793 95.578930804071
lradius 118.58191394158256
lwrist 43.544904156655925
lhand -23.148539499151894 -0.0704590718339475
lfingers nan
lthumb 3.339329288441318 29.87524119525313
rclavicle -1.1969515185685521e-14 -2.6790580873409504e-15
rhumerus -62.29228731167048 5.798061179369469 -96.88424154887704
rradius 109.82124156366672
rwrist -14.504687062473579
rhand -15.64688429913332 nan
rfingers nan
rthumb 10.902162945590849 10.17012402915908
55
root -0.520759734246576 17.860455373449664 4.384088184005917 6.685277065424522 -1.2604831323923318 -1.7570982890841682
lfemur 8.310603205870464 -1.005211772556176 -26.831728848363518
ltibia 31.765473314540788
lfoot -8.846735470412273 -3.6511141928145787
ltoes -31.831369558631472
rfemur -53.792834302317814 -4.239170975265134 23.151021020146352
rtibia 89.90780238546301
rfoot 3.182482095701681 7.0017811752512324
rtoes -3.928854019729937
lowerback nan -1.0278015405494219 -3.5578736210060735
upperback -0.779971744476323 -2.197388736487965 2.6528007371527087
thorax -8.984615547028548 -0.9781519424047529 5.711145808842648
lowerneck -22.612344934620566 -2.488388931534062 -0.8775593889871505
upperneck 12.08270918572404 -3.850814094644599 2.682453954676866
head 7.885180692830063 -1.3408353368445698 0.47058927765692277
lclavicle -2.3875660550280047e-14 4.142707242119669e-15
lhumerus -28.25695782945956 -17.437689789905335 95.42345142325652
lradius 119.60530387068522
lwrist 44.09758573748198
lhand -22.72167346288547 -0.6870507767250456
lfingers nan
lthumb 3.7418728007877498 29.217076977138003
rclavicle -2.1286830839175615e-14 6.3772102311881295e-15
rhumerus -62.8604056128404 5.356664273021249 -96.19233228607709
rradius 110.14949460623568
rwrist -13.147938787667865
rhand -15.151211179616478 nan
rfingers nan
rthumb 11.397554999195666 10.230187816608286
56
root -0.4934526199172868 17.97977795362914 5.1491591822598535 6.691114570379472 -2.371049810411762 -2.1208598934736322
lfemur 10.408384763469698 -0.11871568212484962 -26.350078773445386
ltibia 30.14929377862823
lfoot -4.802796945361793 -6.21123792246233
ltoes -33.16238653290615
rfemur -53.40498326597567 -3.13070826834406 23.634398754575262
rtibia 85.35621964751624
rfoot 2.3256364358120067 5.5424937363901305
rtoes -4.823024432693601
lowerback nan -1.0477323504861116 -3.3972436772553265
upperback -0.7509255584736796 -2.1627371598491445 2.9455547161242377
thorax -8.545546423262836 -1.0102670631701556 5.783758410948653
lowerneck -22.842364194822004 -2.3792300879673967 -1.309623205334236
upperneck 12.557493313122462 -3.5316573418682733 2.79881525024646
head 8.036139917892402 -1.1894680642467161 0.5841296833881507
lclavicle -7.51207206703655e-15 -1.9944041458570053e-14
lhumerus -28.521480264467858 -17.726260926714794 95.33859509686732
lradius 120.4602016078058
lwrist 44.348070357280115
lhand -22.5959293662416 -0.5707872821933264
lfingers nan
lthumb 3.85205325066513 29.337491075020523
rclavicle -4.3420088748771064e-15 -1.7209098226614357e-14
rhumerus -63.49903479999852 4.890636690993589 -95.28182082141127
rradius 110.47126798868061
rwrist -11.434960646225736
rhand -15.04884451295899 nan
rfingers nan
rthumb 11.497979538891121 10.622576047303426
57
root -0.4071782516827997 18.114564988217055 4.566899081796736 7.459964718409491 -1.6313015947125045 -2.4134552654649117
lfemur 11.817911502641394 -0.8303832436106087 -25.880247292215458
ltibia 28.610352911508055
lfoot 0.2246986471315971 -9.454486852299851
ltoes -31.535009238586355
rfemur -53.35431374016348 -3.4427140113435915 23.9618296333673
rtibia 80.63316945847714
rfoot 2.221773594096855 3.639529754391453
rtoes -4.102922978076139
lowerback nan -1.6825880025812214 -2.3348581331658584
upperback -1.2739197882886235 -2.8132233979844417 3.106749860639647
thorax -8.20475548465234 -1.3937804009874772 5.422215303451888
lowerneck -23.072326007295565 -2.261257716152496 -1.5040978034735355
upperneck 13.118463968319585 -3.2941086715865615 2.842866271792455
head 8.202470916380173 -1.08338845615753 0.6345562313683907
lclavicle -1.2161332755723333e-14 -1.8278816742291663e-15
lhumerus -28.955033216237304 -18.38372827621962 95.29034328556862
lradius 121.18754194933982
lwrist 43.72132304492605
lhand -22.861710961682437 0.35435228256972917
lfingers nan
lthumb 3.6179917842403038 30.291966198968865
rclavicle -8.892006256300134e-15 9.588700080116015e-16
rhumerus -64.21763699743677 4.281704121041132 -94.45634084374143
rradius 110.67442087713393
rwrist -10.26139843746469
rhand -14.833023236967033 nan
rfingers nan
rthumb 11.710488909408213 10.729338873253438
